<?xml version="1.0" encoding="UTF-8"?>
<svg version="1.1" xmlns="http://www.w3.org/2000/svg" width="1220" height="1220">
<path d="M0 0 C1.66981369 1.47101415 3.36896835 2.9028224 5.07177734 4.33544922 C13.69063109 11.7382049 20.66328476 20.01512263 21.82958984 31.81201172 C22.10487154 41.64971037 19.48693366 50.02117258 13.21630859 57.68701172 C6.55957011 64.71179103 -1.19968367 67.49869169 -10.78369141 67.83935547 C-22.9617827 67.47075201 -29.94541257 62.78375662 -38.40869141 54.40185547 C-71.71781579 22.36495458 -116.1688544 7.43810946 -161.86181641 8.15185547 C-203.95572977 9.38195229 -242.62054485 27.26994117 -273.40869141 55.40185547 C-274.22853516 56.14951172 -275.04837891 56.89716797 -275.89306641 57.66748047 C-306.19297548 86.67803171 -324.33740769 129.79081727 -325.62744141 171.43310547 C-326.55703931 218.77217457 -310.30131881 261.49790702 -278.40869141 296.40185547 C-277.66103516 297.22169922 -276.91337891 298.04154297 -276.14306641 298.88623047 C-247.13251516 329.18613955 -204.01972961 347.33057176 -162.37744141 348.62060547 C-118.70949746 349.47811344 -77.73244659 336.00720284 -44.40869141 307.40185547 C-43.57595703 306.69287109 -42.74322266 305.98388672 -41.88525391 305.25341797 C-14.67709853 281.47846831 4.68535225 247.91711528 11.59130859 212.40185547 C10.72954576 212.39854532 9.86778294 212.39523518 8.97990608 212.39182472 C-12.01184018 212.31051979 -33.00351487 212.21840282 -53.99516106 212.11432838 C-64.14666113 212.06425761 -74.29815336 212.01781412 -84.44970703 211.97998047 C-93.3002605 211.94698622 -102.15075203 211.9071141 -111.00123703 211.85906541 C-115.68524844 211.83387423 -120.36921916 211.81207132 -125.05327988 211.79851151 C-129.46751601 211.78562396 -133.88161206 211.76349818 -138.29577065 211.73447227 C-139.91056231 211.72544859 -141.52537649 211.71971853 -143.14019203 211.71764183 C-156.72562695 211.69705263 -168.61666529 211.28826516 -179.22900391 201.76904297 C-185.91096282 194.54984112 -188.50521727 186.13717824 -188.40869141 176.40185547 C-187.75675135 167.2746947 -183.83116042 159.26061749 -177.09619141 153.02685547 C-168.53046358 146.35201678 -159.30361459 145.24970228 -148.75117493 145.26141357 C-147.90428185 145.25844245 -147.05738878 145.25547133 -146.18483227 145.25241017 C-143.36010914 145.24377064 -140.53542863 145.24221896 -137.71069336 145.24072266 C-135.67989513 145.23609113 -133.64909776 145.23106602 -131.61830139 145.22567749 C-126.10982172 145.21258394 -120.60135421 145.20611451 -115.09286141 145.20166683 C-111.64789114 145.19873125 -108.20292416 145.19462553 -104.75795555 145.19016266 C-93.96924458 145.17649589 -83.18054118 145.16682516 -72.39182216 145.16296077 C-59.95668301 145.15848159 -47.52165386 145.14093666 -35.08654815 145.11196017 C-25.46166839 145.09031401 -15.83681951 145.08025492 -6.21191567 145.07891965 C-0.46931644 145.07787375 5.27317928 145.07201168 11.01575279 145.05410004 C16.42074662 145.03756857 21.82555967 145.03548848 27.23056984 145.04423904 C29.20737316 145.0450067 31.1841864 145.04070282 33.16096497 145.03078079 C60.59770729 144.90121208 60.59770729 144.90121208 70.59130859 154.40185547 C71.14560547 154.92779297 71.69990234 155.45373047 72.27099609 155.99560547 C79.41883962 163.53462451 81.26351959 172.35911819 81.02880859 182.46435547 C81.00681396 184.0181189 81.00681396 184.0181189 80.984375 185.60327148 C79.93265679 230.10702905 65.8193406 276.1330384 39.59130859 312.40185547 C39.15061035 313.01625488 38.70991211 313.6306543 38.25585938 314.26367188 C32.28846166 322.54689681 26.06291562 330.36610319 19.05224609 337.78857422 C16.92694825 340.04543812 14.90406224 342.3475395 12.90380859 344.71435547 C9.44627723 348.68441501 5.61207079 352.01630613 1.59130859 355.40185547 C0.69025391 356.20236328 -0.21080078 357.00287109 -1.13916016 357.82763672 C-25.44682271 379.26440892 -54.61483924 394.65015619 -85.40869141 404.40185547 C-86.14909668 404.63888184 -86.88950195 404.8759082 -87.65234375 405.12011719 C-147.6169 423.98612736 -213.13807805 415.08523353 -268.28369141 386.40185547 C-292.02736984 373.81550741 -315.18608481 356.17473623 -332.40869141 335.40185547 C-333.20275391 334.50724609 -333.99681641 333.61263672 -334.81494141 332.69091797 C-356.26550524 308.38604524 -371.6551881 279.2014044 -381.40869141 248.40185547 C-381.64571777 247.6614502 -381.88274414 246.92104492 -382.12695312 246.15820312 C-400.9929633 186.19364687 -392.09206946 120.67246882 -363.40869141 65.52685547 C-353.88111933 47.55344438 -341.56017944 30.01727316 -326.88525391 15.87841797 C-325.24913341 14.30419215 -325.24913341 14.30419215 -323.47119141 11.90185547 C-321.07886832 9.00206991 -318.43078754 6.69315727 -315.57275391 4.26123047 C-314.21029009 3.09059369 -312.86811488 1.89549265 -311.55712891 0.66748047 C-287.34536861 -21.90443949 -256.80860278 -37.73274104 -225.40869141 -47.59814453 C-224.67118652 -47.8337207 -223.93368164 -48.06929688 -223.17382812 -48.31201172 C-147.14138447 -72.23961801 -59.32497814 -52.80204215 0 0 Z " fill="#585574" transform="translate(765.40869140625,431.59814453125)"/>
<path d="M0 0 C16.42146742 13.10301338 27.01536323 30.72286048 29.75 51.75 C29.85331023 53.16535009 29.9369904 54.58228399 30 56 C30.0515625 56.71671875 30.103125 57.4334375 30.15625 58.171875 C30.94581582 77.77942626 23.48080828 97.3658084 10.8125 112.1875 C-4.44046773 128.23784041 -23.81265697 136.29077751 -45.765625 136.99609375 C-66.18156873 137.24967932 -85.01566274 129.32586776 -99.73046875 115.32421875 C-110.3590773 104.43949915 -118.07364915 91.04289445 -121 76 C-121.18175781 75.08347656 -121.36351562 74.16695312 -121.55078125 73.22265625 C-124.44036416 52.49303974 -120.02570383 32.08321896 -107.515625 15.17578125 C-95.4275156 -0.4483381 -78.2979971 -11.18932745 -58.73828125 -14.5625 C-37.42554722 -17.05678026 -17.49792284 -12.7701434 0 0 Z " fill="#F4D68F" transform="translate(1034,927)"/>
<path d="M0 0 C16.33860322 13.17548949 26.80209598 28.76578671 30.65234375 49.515625 C32.90139988 72.05672693 28.22641387 92.67713867 13.90234375 110.62890625 C0.50255019 126.10838559 -17.11402376 135.9754217 -37.68212891 137.72631836 C-59.59033841 139.13163746 -79.70875622 132.82410352 -96.39282227 118.39135742 C-111.6528754 104.55691145 -119.97384917 85.21417725 -121.125 64.78125 C-121.68555647 43.19982578 -114.10158865 23.99726194 -99.359375 8.33984375 C-88.56032004 -2.36981506 -75.02226527 -10.07766222 -60 -13 C-59.08476562 -13.18175781 -58.16953125 -13.36351562 -57.2265625 -13.55078125 C-37.00541067 -16.36607479 -16.73765328 -11.82901458 0 0 Z " fill="#E2A4DF" transform="translate(277,926)"/>
<path d="M0 0 C19.84409738 -0.57623513 38.31481982 6.64418667 53.21484375 19.5 C65.09735196 30.80661928 73.74311826 44.8850144 76.90234375 61.125 C77.17498047 62.49785156 77.17498047 62.49785156 77.453125 63.8984375 C80.30086303 84.3526254 75.85038686 105.3412213 63.41796875 121.984375 C51.23755033 137.5407834 34.22976232 148.3388176 14.62890625 151.68359375 C-7.23428671 154.27325916 -28.09637761 149.72616465 -45.66015625 136.0625 C-47.15578049 134.76878503 -48.63675455 133.45780025 -50.09765625 132.125 C-51.0103125 131.34962891 -51.0103125 131.34962891 -51.94140625 130.55859375 C-65.65857157 118.11961883 -72.68803749 99.18154508 -74.09765625 81.125 C-74.16855469 80.30128906 -74.23945313 79.47757812 -74.3125 78.62890625 C-75.13070369 59.22111464 -67.40607315 39.55749681 -54.91015625 24.9375 C-40.12595858 9.38043534 -21.28410928 1.26832681 0 0 Z " fill="#E2A4DF" transform="translate(230.09765625,155.875)"/>
<path d="M0 0 C20.96352992 -0.65271064 40.52043527 7.20289809 55.9375 21.1796875 C70.85591955 35.3865842 78.60253112 55.33026055 79.1328125 75.74609375 C78.76193439 97.86391535 70.64449261 116.55187374 54.9453125 132.12109375 C40.17390509 146.14360113 20.64718265 152.81344446 0.47851562 152.52612305 C-22.46022196 151.65867079 -40.94663264 141.20956153 -56.3046875 124.68359375 C-70.24876201 108.41083074 -74.50378584 88.04477326 -73.0546875 67.12109375 C-70.38833523 46.60267982 -60.01357621 29.27149888 -44.3671875 15.93359375 C-31.44911603 6.0503706 -16.11068965 0.94948931 0 0 Z " fill="#F4D68F" transform="translate(985.0546875,155.87890625)"/>
<path d="M0 0 C14.02154375 13.50374135 22.00117956 32.00644007 23.14453125 51.35546875 C23.42570971 72.72503144 17.00452511 91.8395493 2.29296875 107.53515625 C-8.24208814 118.2102139 -18.67957637 124.47689695 -33.05859375 128.91796875 C-33.85523438 129.16675781 -34.651875 129.41554688 -35.47265625 129.671875 C-53.92275664 134.33329612 -74.38240121 130.71995444 -90.91015625 121.83203125 C-95.69125874 118.92540567 -99.91409967 115.66841925 -104.05859375 111.91796875 C-104.82816406 111.24121094 -105.59773437 110.56445312 -106.390625 109.8671875 C-120.52600055 96.69504027 -127.90107806 78.18766199 -129.34375 59.15625 C-129.87459728 37.06838701 -122.33742612 17.22065186 -107.296875 1.0703125 C-77.30124664 -27.77365124 -30.59242743 -27.92578671 0 0 Z " fill="#EBBDB7" transform="translate(663.05859375,1089.08203125)"/>
<path d="M0 0 C14.43940046 11.64396775 23.52154054 24.2621954 29 42 C29.24878906 42.79664063 29.49757813 43.59328125 29.75390625 44.4140625 C34.41532737 62.86416289 30.80198569 83.32380746 21.9140625 99.8515625 C19.00743692 104.63266499 15.7504505 108.85550592 12 113 C10.98486328 114.15435547 10.98486328 114.15435547 9.94921875 115.33203125 C-3.22292848 129.4674068 -21.73030676 136.84248431 -40.76171875 138.28515625 C-62.84958174 138.81600353 -82.69731689 131.27883237 -98.84765625 116.23828125 C-113.38225537 101.12335331 -121 81.95306201 -121 61 C-120.00619305 39.77725256 -112.19828291 21.03308419 -97 6 C-69.82966075 -17.97171466 -29.83528188 -21.08551172 0 0 Z " fill="#F8E07E" transform="translate(1189,548)"/>
<path d="M0 0 C15.63471519 13.03344542 24.35023797 31.80325171 26.37890625 51.81640625 C27.51942506 73.31993796 21.09991178 93.12482321 6.96435547 109.51953125 C-6.62652553 124.54804177 -25.72041942 133.14130959 -45.87109375 134.33203125 C-67.24065644 134.61320971 -86.3551743 128.19202511 -102.05078125 113.48046875 C-112.7258389 102.94541186 -118.99252195 92.50792363 -123.43359375 78.12890625 C-123.68238281 77.33226562 -123.93117188 76.535625 -124.1875 75.71484375 C-128.84892112 57.26474336 -125.23557944 36.80509879 -116.34765625 20.27734375 C-113.44159019 15.49716161 -110.18783883 11.26910176 -106.43359375 7.12890625 C-105.73363281 6.34773437 -105.03367187 5.5665625 -104.3125 4.76171875 C-76.17402293 -25.03196285 -31.13623924 -23.9394199 0 0 Z " fill="#DE9AF0" transform="translate(125.43359375,551.87109375)"/>
<path d="M0 0 C1.58265959 1.35174697 3.14565084 2.72688254 4.6875 4.125 C5.46867188 4.82496094 6.24984375 5.52492188 7.0546875 6.24609375 C20.90724357 19.32906338 28.77178496 37.62828402 29.890625 56.5625 C30.18428327 78.88052884 23.23581028 98.53295518 7.92578125 114.97265625 C-7.15851373 129.47779854 -25.47283162 136.7227518 -46.3125 136.5 C-47.39789062 136.51160156 -48.48328125 136.52320313 -49.6015625 136.53515625 C-60.35965253 136.4966428 -70.03926172 134.34040989 -79.5625 129.3125 C-80.24505859 128.9606665 -80.92761719 128.60883301 -81.63085938 128.24633789 C-86.5832462 125.63922612 -91.0551493 122.77138693 -95.3125 119.125 C-96.26962891 118.39796875 -96.26962891 118.39796875 -97.24609375 117.65625 C-111.99985991 105.92226054 -120.19444506 86.43395568 -122.3125 68.125 C-123.5566386 47.07034674 -118.04907908 27.02816675 -104 11 C-92.87618089 -0.86788727 -81.92509747 -8.05292735 -66.3125 -12.875 C-65.51585937 -13.12378906 -64.71921875 -13.37257813 -63.8984375 -13.62890625 C-42.16492046 -19.11988317 -17.56834184 -13.56816555 0 0 Z " fill="#EBBDB7" transform="translate(656.3125,14.875)"/>
<path d="M0 0 C9.78494909 5.99881301 15.99221616 14.52784094 19.12402344 25.5949707 C21.54358859 36.60811932 20.20167285 48.94683503 14.58203125 58.6796875 C6.87739846 69.39464103 -3.34879403 76.44931936 -16.41796875 78.6796875 C-28.61979674 79.77426325 -39.490975 76.99184939 -49.26953125 69.5234375 C-58.12289376 61.92564277 -63.71652401 51.5855306 -64.63671875 39.90234375 C-65.05366278 26.40378093 -60.86044971 15.28392454 -51.66796875 5.3671875 C-37.64682713 -7.92872265 -16.44734069 -8.98093886 0 0 Z " fill="#F3D393" transform="translate(972.41796875,425.3203125)"/>
<path d="M0 0 C9.87755526 6.83245152 17.27972016 16.35473307 19.51953125 28.24609375 C21.21132117 41.28525508 18.744384 53.01223597 10.68359375 63.56640625 C3.08579902 72.41976876 -7.25431315 78.01339901 -18.9375 78.93359375 C-32.38870212 79.3490749 -43.46238418 75.16930934 -53.41015625 66.08984375 C-62.73624513 56.29082947 -64.64770112 45.21249788 -64.4375 32.27734375 C-63.98125733 21.21856616 -58.40889907 11.49534818 -50.47265625 3.96484375 C-36.58741379 -7.53930704 -15.43116682 -9.1805676 0 0 Z " fill="#E3A7DB" transform="translate(292.16015625,425.28515625)"/>
<path d="M0 0 C8.22715163 6.28094372 12.30936348 14.24059043 15.54296875 23.94140625 C16.91560915 38.75456283 15.07225352 50.4553959 5.796875 62.4296875 C-1.87737521 70.98175489 -11.64109619 75.09995708 -22.9765625 76.3203125 C-35.4590624 76.74694701 -46.04401001 73.21345522 -55.45703125 64.94140625 C-63.71511379 56.56902499 -68.46652738 46.22372179 -68.70703125 34.37890625 C-68.51094886 22.36440318 -64.43177046 12.54743866 -56.38671875 3.65234375 C-40.52833409 -11.52395985 -17.7003223 -11.95832776 0 0 Z " fill="#EEC6A8" transform="translate(780.45703125,232.05859375)"/>
<path d="M0 0 C8.90444927 7.28545849 14.64513162 17.23043891 16.0625 28.6875 C17.19349003 41.08799788 13.33435811 52.77906969 5.4375 62.3125 C-2.01138986 70.31315948 -11.35963576 74.95764625 -22.22265625 76.00390625 C-35.68471205 76.46605877 -46.97777523 72.91418903 -56.9375 63.6875 C-66.27093319 53.20694095 -68.91629374 41.99336584 -68.3828125 28.29296875 C-67.65602559 18.35953765 -62.8979377 9.70179022 -55.9375 2.6875 C-39.29008576 -11.06471177 -17.81142833 -12.72244881 0 0 Z " fill="#E7B4C6" transform="translate(491.9375,232.3125)"/>
<path d="M0 0 C7.95884465 7.33584311 13.52349561 16.52619385 14.234375 27.52734375 C14.58476523 41.04015081 12.55887833 51.66925506 2.99609375 61.83984375 C-5.18725091 70.29339318 -15.61975867 74.6721608 -27.32421875 74.90625 C-39.53387086 74.4634824 -50.23806124 70.52156357 -59.00390625 61.83984375 C-67.88157496 51.24894073 -70.71138883 40.51146661 -70.00390625 26.83984375 C-69.0758239 17.78723719 -64.43091946 8.26685696 -58.00390625 1.83984375 C-40.73518743 -12.08345907 -17.77872352 -14.98990415 0 0 Z " fill="#F3D393" transform="translate(978.00390625,718.16015625)"/>
<path d="M0 0 C8.2329284 8.13472249 13.06797008 19.64908885 13.15234375 31.19140625 C13.00049791 42.53429028 9.48294277 52.89563563 1.68359375 61.3515625 C-8.18110967 70.47641316 -19.70627026 74.27535437 -33.03515625 73.94140625 C-45.64487467 72.56448297 -55.3189758 66.91600806 -63.3828125 57.203125 C-70.92003993 46.88621086 -72.22620728 35.36406847 -71.03515625 22.94140625 C-68.68399898 11.88028001 -62.18598026 2.48236958 -53.03515625 -4.05859375 C-36.03462134 -14.72282281 -15.34235192 -12.84540495 0 0 Z " fill="#E3A7DB" transform="translate(299.03515625,719.05859375)"/>
<path d="M0 0 C6.72065911 6.12241862 12.18260612 15.05226435 12.98950195 24.27758789 C13.41390715 39.07428058 12.26186404 49.94114137 1.8125 61.25390625 C-5.72325823 69.0562597 -14.9612107 73.30195649 -25.73706055 73.54638672 C-39.6179522 73.65696994 -49.03249489 70.90683082 -59.28125 61.2890625 C-67.67398731 52.63013763 -71.58420965 41.81174345 -71.40234375 29.80859375 C-70.67218874 21.12638692 -67.93473235 13.50996076 -63.1875 6.25390625 C-62.630625 5.38765625 -62.07375 4.52140625 -61.5 3.62890625 C-44.24265777 -14.09485064 -19.12011966 -15.26195266 0 0 Z " fill="#EEC6A8" transform="translate(783.1875,914.74609375)"/>
<path d="M0 0 C9.36057886 8.08413629 15.16105872 18.57615465 16.15625 30.94140625 C16.70669899 43.76228057 11.91764368 54.87262814 3.375 64.25 C-6.74175804 73.87849752 -17.97120667 75.48615131 -31.21484375 75.2734375 C-42.87210512 74.81415004 -51.47456183 69.0762679 -59.25 60.6875 C-68.24588766 49.61178316 -69.07380571 37.69906897 -68 24 C-65.72598762 12.64293244 -58.29869581 3.62372852 -49 -3 C-32.47704756 -11.59108467 -15.28063792 -11.07210733 0 0 Z " fill="#E7B4C6" transform="translate(492,913)"/>
</svg>
